<?xml version="1.0" standalone="no"?>
<!DOCTYPE svg PUBLIC "-//W3C//DTD SVG 20010904//EN"
 "http://www.w3.org/TR/2001/REC-SVG-20010904/DTD/svg10.dtd">
<svg version="1.0" xmlns="http://www.w3.org/2000/svg"
 width="512.000000pt" height="512.000000pt" viewBox="0 0 512.000000 512.000000"
 preserveAspectRatio="xMidYMid meet">

<g transform="translate(0.000000,512.000000) scale(0.100000,-0.100000)"
fill="#000000" stroke="none">
<path d="M388 5033 c-51 -60 -44 -133 12 -133 24 0 33 7 50 40 23 44 26 80 8
98 -17 17 -53 15 -70 -5z"/>
<path d="M1216 5031 c-45 -49 37 -308 137 -434 27 -35 32 -53 58 -230 16 -106
33 -247 39 -314 23 -280 -39 -617 -161 -882 -41 -88 -42 -113 -8 -132 34 -18
57 -1 90 69 79 167 144 386 170 572 20 139 16 393 -9 570 -12 85 -25 165 -27
178 -6 23 -4 22 57 -11 121 -66 186 -82 343 -82 120 0 150 3 212 24 79 25 106
48 101 82 -5 36 -31 45 -85 30 -26 -8 -70 -20 -98 -27 -71 -20 -189 -17 -280
6 -235 60 -411 258 -445 500 -6 41 -15 79 -21 87 -16 19 -53 16 -73 -6z"/>
<path d="M3832 5038 c-6 -7 -17 -53 -26 -103 -22 -130 -78 -238 -170 -329 -39
-39 -88 -80 -109 -91 -40 -21 -57 -57 -40 -84 15 -25 52 -25 95 -1 l39 22 -5
-24 c-3 -12 -16 -93 -28 -178 -67 -476 9 -879 242 -1295 166 -295 236 -543
260 -921 23 -372 -42 -813 -165 -1110 -19 -46 -114 -242 -210 -435 -119 -236
-175 -359 -173 -377 4 -31 27 -47 60 -39 21 6 53 64 211 386 204 414 240 499
286 671 112 423 126 925 36 1322 -48 211 -101 340 -263 638 -52 96 -102 221
-136 338 -79 276 -89 525 -34 898 33 219 36 234 65 270 75 95 124 215 143 348
9 60 8 72 -6 88 -20 21 -57 24 -72 6z"/>
<path d="M4662 5038 c-18 -18 -15 -54 8 -98 17 -33 26 -40 50 -40 56 0 63 73
12 133 -17 20 -53 22 -70 5z"/>
<path d="M287 4795 c-25 -24 -43 -93 -30 -113 14 -23 57 -27 76 -7 25 24 43
93 30 113 -14 23 -57 27 -76 7z"/>
<path d="M4762 4798 c-16 -16 -15 -40 4 -88 22 -54 83 -69 101 -24 7 20 -13
89 -33 109 -18 18 -55 20 -72 3z"/>
<path d="M170 4530 c-33 -65 -23 -110 25 -110 26 0 47 22 65 68 18 47 1 82
-40 82 -24 0 -33 -7 -50 -40z"/>
<path d="M4858 4545 c-19 -42 25 -125 67 -125 48 0 58 45 25 110 -17 33 -26
40 -50 40 -23 0 -33 -6 -42 -25z"/>
<path d="M1030 4470 c-28 -28 -25 -44 16 -90 l36 -40 -124 0 c-131 0 -148 -5
-148 -46 0 -43 34 -54 158 -54 l114 0 -36 -40 c-41 -46 -42 -48 -20 -78 26
-37 52 -27 136 56 98 94 103 103 84 139 -26 50 -162 173 -190 173 -3 0 -15 -9
-26 -20z"/>
<path d="M4035 4478 c-32 -17 -145 -130 -161 -161 -19 -36 -14 -45 84 -139 84
-83 110 -93 136 -56 22 30 21 32 -20 78 l-36 40 114 0 c124 0 158 11 158 54 0
41 -17 46 -148 46 l-124 0 36 40 c41 46 44 62 16 90 -23 23 -27 24 -55 8z"/>
<path d="M2913 4469 c-18 -18 -16 -53 5 -72 21 -19 121 -53 183 -62 60 -9 89
6 89 44 0 38 -9 44 -115 70 -122 32 -148 35 -162 20z"/>
<path d="M3306 4424 c-32 -31 -8 -84 38 -84 30 0 46 18 46 52 0 43 -53 64 -84
32z"/>
<path d="M74 4295 c-21 -50 -18 -91 7 -109 30 -21 61 -6 76 35 25 72 12 109
-40 109 -23 0 -31 -7 -43 -35z"/>
<path d="M4962 4318 c-26 -26 -1 -126 34 -139 53 -19 80 43 50 116 -12 28 -20
35 -43 35 -16 0 -34 -5 -41 -12z"/>
<path d="M93 4070 c-29 -12 -35 -38 -20 -89 14 -51 33 -67 70 -57 34 8 42 39
24 90 -16 47 -43 68 -74 56z"/>
<path d="M4981 4062 c-18 -16 -41 -71 -41 -98 0 -20 30 -44 55 -44 26 0 46 29
59 83 13 53 -35 92 -73 59z"/>
<path d="M202 3834 c-30 -21 -28 -47 8 -87 36 -41 61 -50 89 -30 33 22 26 56
-19 97 -46 41 -48 42 -78 20z"/>
<path d="M4840 3814 c-45 -41 -52 -75 -19 -97 28 -20 53 -11 89 30 36 40 38
66 8 87 -30 22 -32 21 -78 -20z"/>
<path d="M366 3634 c-19 -19 -20 -34 -4 -71 18 -42 39 -63 63 -63 45 0 58 45
29 103 -26 50 -58 61 -88 31z"/>
<path d="M4694 3642 c-17 -11 -44 -69 -44 -95 0 -45 52 -64 82 -29 17 21 38
68 38 87 0 32 -48 56 -76 37z"/>
<path d="M856 3594 c-24 -23 -19 -49 15 -89 l31 -35 -116 0 c-103 0 -118 -2
-136 -20 -24 -24 -25 -43 -4 -64 12 -13 40 -16 135 -16 65 0 119 -4 119 -8 0
-5 -13 -21 -30 -37 -16 -16 -30 -39 -30 -51 0 -21 33 -54 54 -54 19 0 186 174
186 194 0 25 -167 196 -192 196 -9 0 -24 -7 -32 -16z"/>
<path d="M4127 3522 c-53 -53 -87 -95 -87 -108 0 -20 167 -194 186 -194 21 0
54 33 54 54 0 12 -13 35 -30 51 -16 16 -30 32 -30 37 0 4 54 8 119 8 95 0 123
3 135 16 21 21 20 40 -4 64 -18 18 -33 20 -136 20 l-116 0 31 35 c17 20 31 44
31 55 0 23 -26 50 -48 50 -10 0 -57 -39 -105 -88z"/>
<path d="M426 3384 c-25 -24 -22 -120 3 -134 28 -14 38 -13 61 10 14 14 20 33
20 64 0 48 -19 76 -50 76 -10 0 -26 -7 -34 -16z"/>
<path d="M4626 3384 c-24 -23 -21 -99 4 -124 23 -23 33 -24 61 -10 15 9 19 22
19 65 0 57 -16 85 -50 85 -10 0 -26 -7 -34 -16z"/>
<path d="M381 3133 c-26 -22 -40 -105 -21 -128 17 -20 53 -19 73 3 9 10 20 39
23 64 6 40 4 47 -17 62 -29 20 -32 20 -58 -1z"/>
<path d="M4681 3134 c-21 -15 -23 -22 -17 -62 3 -25 14 -54 23 -64 20 -22 56
-23 73 -3 19 23 5 106 -21 128 -26 21 -29 21 -58 1z"/>
<path d="M2522 3038 c-7 -7 -12 -40 -12 -79 0 -72 14 -99 50 -99 36 0 50 27
50 99 0 73 -10 91 -50 91 -14 0 -31 -5 -38 -12z"/>
<path d="M1172 2948 c-15 -15 -15 -61 0 -76 20 -20 56 -14 74 13 15 23 15 27
0 50 -18 27 -54 33 -74 13z"/>
<path d="M322 2877 c-6 -7 -14 -36 -18 -64 -6 -48 -5 -52 20 -68 24 -16 28
-16 51 -1 14 9 25 22 25 29 0 6 3 28 6 48 4 26 2 40 -11 52 -20 20 -58 22 -73
4z"/>
<path d="M4725 2873 c-13 -12 -15 -26 -11 -52 3 -20 6 -42 6 -48 0 -7 11 -20
25 -29 23 -15 27 -15 51 1 25 16 26 20 20 68 -4 28 -12 57 -18 64 -15 18 -53
16 -73 -4z"/>
<path d="M1087 2763 c-8 -10 -31 -70 -50 -133 -133 -439 -147 -967 -37 -1425
48 -201 94 -313 298 -727 167 -340 199 -399 220 -405 32 -8 56 8 60 39 2 16
-63 157 -191 414 -210 422 -256 539 -302 768 -40 199 -56 363 -56 586 1 293
33 514 107 737 39 116 40 126 18 147 -20 21 -47 20 -67 -1z"/>
<path d="M281 2612 c-15 -29 -16 -99 -2 -116 17 -20 55 -21 71 -1 18 22 25
102 10 120 -18 21 -67 19 -79 -3z"/>
<path d="M4760 2615 c-15 -18 -8 -98 10 -120 16 -20 54 -19 71 1 14 17 13 87
-2 116 -12 22 -61 24 -79 3z"/>
<path d="M1857 2482 c-9 -10 -17 -28 -17 -39 0 -11 34 -69 76 -129 202 -290
403 -489 549 -546 l40 -16 3 -288 c1 -191 6 -292 13 -301 15 -17 63 -17 78 0
7 9 12 110 13 301 l3 288 40 16 c149 58 366 276 565 567 33 49 60 98 60 110 0
27 -33 58 -56 53 -10 -2 -56 -58 -103 -124 -175 -249 -324 -409 -447 -484
-113 -68 -201 -43 -359 102 -86 80 -198 215 -316 382 -88 126 -111 143 -142
108z"/>
<path d="M272 2363 c-26 -23 -35 -94 -15 -122 17 -24 55 -28 73 -6 7 8 15 35
17 59 4 35 1 48 -16 65 -26 26 -33 26 -59 4z"/>
<path d="M4789 2359 c-17 -17 -20 -30 -16 -65 5 -52 21 -74 52 -74 34 0 49 26
47 78 -2 34 -9 52 -23 65 -27 22 -34 22 -60 -4z"/>
<path d="M262 2104 c-18 -12 -22 -25 -22 -68 0 -59 12 -76 52 -76 34 0 48 24
48 84 0 35 -5 48 -22 60 -12 9 -25 16 -28 16 -3 0 -16 -7 -28 -16z"/>
<path d="M4802 2104 c-17 -12 -22 -25 -22 -60 0 -60 14 -84 48 -84 40 0 52 17
52 76 0 43 -4 56 -22 68 -12 9 -25 16 -28 16 -3 0 -16 -7 -28 -16z"/>
<path d="M612 1944 c-32 -22 -27 -53 15 -96 l37 -38 -126 0 c-102 0 -130 -3
-142 -16 -21 -21 -20 -40 4 -64 18 -18 33 -20 136 -20 l116 0 -31 -35 c-17
-20 -31 -44 -31 -55 0 -23 26 -50 48 -50 25 0 192 170 192 195 0 21 -167 195
-186 195 -5 0 -20 -7 -32 -16z"/>
<path d="M4379 1873 c-56 -54 -89 -94 -89 -108 0 -25 167 -195 192 -195 22 0
48 27 48 50 0 11 -14 35 -31 55 l-31 35 116 0 c103 0 118 2 136 20 24 24 25
43 4 64 -12 13 -40 16 -142 16 l-126 0 37 38 c20 21 37 48 37 59 0 20 -33 53
-54 53 -4 0 -48 -39 -97 -87z"/>
<path d="M265 1846 c-16 -11 -19 -24 -17 -67 2 -59 14 -79 48 -79 29 0 54 25
54 53 0 33 -20 97 -30 97 -4 0 -14 2 -22 5 -7 3 -22 -1 -33 -9z"/>
<path d="M4802 1852 c-14 -9 -32 -65 -32 -99 0 -28 25 -53 54 -53 34 0 46 20
48 79 2 42 -1 56 -17 67 -21 16 -34 17 -53 6z"/>
<path d="M279 1579 c-17 -17 -19 -27 -13 -67 8 -56 19 -72 50 -72 48 0 64 40
44 109 -15 54 -46 65 -81 30z"/>
<path d="M4776 1585 c-20 -21 -31 -97 -17 -124 13 -24 62 -29 79 -8 5 6 13 33
16 59 6 40 4 50 -13 67 -25 25 -44 26 -65 6z"/>
<path d="M311 1321 c-16 -16 -19 -29 -14 -58 11 -73 45 -101 88 -70 15 11 17
23 13 67 -7 75 -46 102 -87 61z"/>
<path d="M4746 1327 c-12 -9 -20 -31 -24 -65 -5 -59 7 -82 44 -82 47 0 80 104
43 141 -22 22 -38 24 -63 6z"/>
<path d="M350 1065 c-19 -23 -5 -106 21 -127 26 -22 32 -22 59 0 19 16 21 23
15 65 -4 27 -14 55 -22 62 -19 19 -57 19 -73 0z"/>
<path d="M4697 1065 c-8 -7 -18 -35 -22 -62 -6 -42 -4 -49 15 -65 27 -22 33
-22 59 0 26 21 40 104 21 127 -16 19 -54 19 -73 0z"/>
<path d="M2526 1034 c-19 -18 -21 -55 -4 -72 15 -15 61 -15 76 0 28 28 2 88
-38 88 -10 0 -26 -7 -34 -16z"/>
<path d="M2526 834 c-14 -13 -16 -61 -16 -374 0 -313 2 -361 16 -374 20 -20
48 -20 68 0 14 13 16 61 16 374 0 313 -2 361 -16 374 -8 9 -24 16 -34 16 -10
0 -26 -7 -34 -16z"/>
<path d="M406 811 c-33 -36 3 -141 48 -141 36 0 49 24 43 75 -8 75 -54 107
-91 66z"/>
<path d="M4645 810 c-22 -25 -32 -104 -15 -125 19 -22 57 -18 74 8 7 12 17 39
21 61 11 64 -40 100 -80 56z"/>
<path d="M483 570 c-29 -12 -35 -38 -20 -89 14 -51 33 -67 70 -57 33 8 40 31
24 85 -14 51 -42 73 -74 61z"/>
<path d="M4592 565 c-22 -16 -46 -88 -37 -115 7 -24 52 -37 74 -23 23 14 44
93 32 119 -12 27 -44 36 -69 19z"/>
<path d="M530 305 c-15 -17 -6 -79 16 -112 16 -25 53 -30 72 -11 16 16 15 61
-2 103 -12 29 -20 35 -44 35 -16 0 -35 -7 -42 -15z"/>
<path d="M4511 303 c-23 -45 -29 -91 -14 -112 19 -28 59 -27 77 2 22 33 31 95
16 112 -17 21 -67 19 -79 -2z"/>
</g>
</svg>
