<?xml version="1.0" standalone="no"?>
<!DOCTYPE svg PUBLIC "-//W3C//DTD SVG 20010904//EN"
 "http://www.w3.org/TR/2001/REC-SVG-20010904/DTD/svg10.dtd">
<svg version="1.0" xmlns="http://www.w3.org/2000/svg"
 width="512.000000pt" height="512.000000pt" viewBox="0 0 512.000000 512.000000"
 preserveAspectRatio="xMidYMid meet">

<g transform="translate(0.000000,512.000000) scale(0.100000,-0.100000)"
fill="#000000" stroke="none">
<path d="M1994 4922 c-6 -4 -15 -29 -19 -57 -10 -68 -27 -106 -70 -153 -44
-50 -109 -82 -178 -91 -50 -6 -52 -7 -52 -36 0 -29 2 -30 50 -36 67 -9 115
-30 163 -73 48 -44 72 -91 87 -171 8 -44 16 -61 28 -63 24 -5 47 16 47 42 0
49 32 125 70 169 47 54 111 87 183 96 50 6 52 7 52 36 0 29 -2 30 -52 36 -72
9 -136 42 -183 96 -38 44 -70 120 -70 168 0 35 -30 55 -56 37z m60 -245 c15
-21 45 -49 66 -63 l39 -26 -48 -38 c-27 -21 -59 -55 -72 -76 l-23 -37 -15 24
c-20 31 -79 90 -110 110 l-23 15 40 26 c22 15 55 48 73 73 18 25 35 42 39 38
3 -5 19 -25 34 -46z"/>
<path d="M3750 4830 c-189 -448 -565 -730 -1195 -895 -154 -41 -344 -80 -625
-129 -407 -71 -449 -83 -601 -163 -272 -143 -453 -382 -554 -728 -30 -106 -50
-218 -42 -239 4 -9 18 -16 31 -16 27 0 32 11 56 135 33 167 117 368 208 495
60 84 158 179 243 236 65 43 207 114 228 114 7 0 11 -245 14 -732 3 -710 4
-736 24 -813 l22 -80 -92 -95 c-50 -52 -206 -211 -346 -353 l-254 -259 -66 66
c-39 38 -75 66 -87 66 -19 0 -174 -147 -174 -166 0 -4 62 -70 137 -146 l137
-138 -157 -158 -157 -157 -68 68 c-37 37 -74 67 -82 67 -19 0 -160 -140 -160
-160 0 -8 83 -98 185 -200 l185 -185 -116 -5 c-95 -4 -119 -8 -127 -22 -8 -12
-7 -21 2 -32 12 -14 68 -16 496 -16 428 0 484 2 496 16 9 11 10 20 2 32 -9 15
-43 18 -292 22 l-282 5 35 34 c20 19 36 42 36 50 0 9 -30 46 -67 83 l-68 68
158 158 157 157 133 -133 c80 -79 140 -132 152 -132 26 0 165 139 165 164 0
12 -29 50 -67 88 l-67 67 244 248 c134 137 272 277 306 312 l63 65 81 -80 82
-79 -5 -220 c-4 -170 -10 -239 -25 -305 -39 -163 -95 -294 -198 -461 l-55 -89
-177 -2 -177 -3 0 -30 0 -30 1521 -3 c1379 -2 1523 -1 1535 14 9 11 10 20 2
32 -8 14 -31 17 -134 20 l-124 3 -68 113 c-84 140 -136 260 -172 396 -26 97
-28 123 -32 340 l-4 235 147 140 c81 77 174 176 207 219 72 98 138 233 174
357 l27 94 6 695 5 695 64 -95 c115 -173 189 -349 232 -550 29 -137 31 -370 6
-508 -21 -116 -76 -286 -128 -399 -43 -93 -44 -123 -3 -123 22 0 31 12 69 92
55 118 99 250 127 381 26 125 32 417 9 532 -69 358 -239 664 -548 985 -163
170 -433 385 -655 522 -54 33 -98 61 -98 63 0 2 25 39 56 82 73 102 176 311
178 361 1 33 -2 37 -25 40 -25 3 -29 -4 -69 -98z m-69 -522 c266 -166 590
-440 742 -630 l38 -46 -4 -724 c-3 -701 -4 -725 -24 -803 -38 -143 -99 -267
-187 -383 -23 -30 -236 -238 -475 -463 -456 -429 -479 -448 -590 -469 -72 -13
-254 -13 -324 1 -101 21 -150 59 -526 414 l-361 339 58 61 c54 54 61 68 83
145 20 73 30 92 76 142 60 65 71 94 51 135 -14 27 -13 30 34 80 26 28 48 58
48 66 0 7 -11 24 -25 37 l-26 24 182 182 c148 148 180 185 177 205 -2 16 -11
25 -27 27 -19 3 -58 -31 -205 -178 -161 -160 -184 -179 -196 -165 -33 40 -48
38 -104 -15 l-53 -50 -31 16 c-43 21 -66 12 -132 -50 -48 -45 -66 -55 -140
-76 -47 -13 -93 -30 -102 -38 -15 -13 -18 -10 -28 27 -23 88 -29 268 -30 894
0 509 3 649 13 652 6 3 165 32 352 65 514 92 747 149 986 245 218 88 384 189
538 327 47 42 91 75 98 73 7 -2 58 -32 114 -67z m-1607 -2214 c53 -53 96 -99
96 -103 0 -4 -22 -29 -49 -55 -40 -40 -53 -61 -67 -112 -9 -35 -20 -64 -23
-64 -13 0 -293 288 -285 293 5 2 34 12 64 20 42 12 67 28 105 67 27 27 52 50
56 50 4 0 50 -43 103 -96z m-349 -689 l-269 -276 -165 165 -165 165 269 276
269 276 165 -165 164 -165 -268 -276z m-390 -398 c-39 -41 -74 -75 -80 -76 -5
0 -83 72 -172 161 l-163 163 77 77 78 78 164 -165 165 -164 -69 -74z m-300 23
l319 -320 -34 -35 c-19 -19 -39 -35 -44 -35 -14 0 -636 621 -636 634 0 11 60
76 70 76 3 0 149 -144 325 -320z m1357 13 c348 -329 343 -326 603 -331 210 -4
271 7 363 68 31 21 163 138 292 260 l235 222 6 -173 c11 -306 66 -501 210
-735 29 -46 50 -87 47 -89 -3 -3 -512 -4 -1131 -3 l-1127 3 60 100 c144 242
200 446 200 736 0 88 3 159 6 159 3 0 109 -98 236 -217z m-1492 -148 l34 -35
-149 -150 c-82 -83 -155 -150 -161 -150 -12 0 -64 52 -64 65 0 10 291 305 300
305 4 0 21 -16 40 -35z m-360 -360 l185 -185 -38 -37 -37 -38 -187 187 -187
187 34 36 c19 19 36 35 39 35 4 0 89 -83 191 -185z"/>
<path d="M2025 3570 c-238 -30 -323 -57 -299 -97 14 -22 49 -22 169 1 122 23
333 32 421 17 130 -23 224 -83 269 -172 26 -51 41 -61 68 -47 23 12 22 40 -4
89 -47 94 -160 171 -289 198 -74 16 -249 22 -335 11z"/>
<path d="M3735 3570 c-124 -20 -197 -52 -268 -118 -88 -83 -123 -188 -59 -180
20 2 34 17 59 60 38 65 94 109 181 141 50 19 78 22 232 22 143 0 196 -5 292
-24 65 -13 125 -21 133 -17 8 3 15 17 15 31 0 32 -20 40 -169 66 -136 23 -331
32 -416 19z"/>
<path d="M1830 2984 c-105 -20 -152 -57 -117 -91 14 -14 22 -14 81 2 75 20
153 16 194 -11 l25 -16 -32 -14 c-40 -17 -99 -62 -112 -86 -12 -22 5 -58 27
-58 9 0 34 16 56 35 74 62 122 67 272 26 132 -35 250 -25 367 33 67 33 85 60
54 86 -13 10 -25 8 -73 -13 -89 -40 -144 -50 -240 -44 -99 6 -171 29 -258 85
-33 21 -72 43 -87 50 -32 14 -120 23 -157 16z"/>
<path d="M4085 2977 c-22 -8 -76 -35 -120 -61 -173 -101 -334 -114 -493 -39
-57 27 -83 24 -90 -10 -5 -24 30 -49 110 -82 66 -27 83 -29 188 -29 93 0 126
5 174 22 102 38 168 27 244 -39 18 -16 38 -29 45 -29 18 0 37 21 37 41 0 20
-59 74 -106 97 -19 8 -34 19 -34 23 0 14 82 39 128 39 26 -1 65 -7 87 -15 53
-20 72 -19 84 4 14 26 -5 47 -59 66 -63 22 -148 27 -195 12z"/>
<path d="M2812 2118 c-21 -21 -13 -46 21 -72 116 -89 256 -89 372 0 38 29 44
54 19 75 -13 11 -20 10 -42 -4 -62 -39 -129 -67 -162 -67 -38 0 -107 28 -147
60 -30 23 -44 25 -61 8z"/>
<path d="M2785 1779 c-68 -36 -235 -198 -235 -229 0 -21 74 -95 148 -148 119
-86 256 -129 366 -117 120 13 255 84 368 194 l60 59 -18 32 c-30 52 -146 162
-209 200 -55 32 -64 35 -132 33 -127 -5 -156 -5 -223 1 -59 6 -70 3 -125 -25z"/>
<path d="M4383 4848 c-6 -7 -13 -36 -16 -64 -17 -149 -158 -284 -296 -284 -76
0 -85 -60 -11 -73 102 -18 149 -38 199 -83 59 -53 99 -129 107 -205 12 -105
65 -101 84 7 6 37 18 81 27 98 49 96 139 161 245 176 71 10 95 28 79 57 -8 15
-24 21 -69 25 -150 14 -263 131 -288 298 -9 57 -37 78 -61 48z m96 -302 c14
-16 45 -41 68 -56 l42 -27 -53 -38 c-29 -21 -70 -62 -91 -91 l-38 -52 -42 58
c-24 31 -66 72 -94 90 l-50 33 42 27 c47 30 112 98 129 136 l11 24 25 -38 c14
-20 37 -50 51 -66z"/>
<path d="M3207 4798 c-8 -13 -33 -54 -57 -91 -46 -73 -47 -98 -3 -105 16 -2
32 13 66 66 26 37 50 80 56 93 19 51 -34 83 -62 37z"/>
<path d="M2975 4510 c-137 -119 -299 -198 -491 -239 -78 -16 -103 -34 -91 -65
9 -23 57 -21 171 9 162 42 299 110 431 216 65 51 76 64 73 87 -5 42 -38 40
-93 -8z"/>
<path d="M1485 4448 c-3 -8 -4 -79 -3 -158 l3 -145 30 0 30 0 0 155 0 155 -28
3 c-16 2 -29 -2 -32 -10z"/>
<path d="M996 4394 c-21 -20 -21 -17 15 -59 35 -39 63 -45 79 -15 10 18 6 26
-23 55 -39 39 -49 42 -71 19z"/>
<path d="M1125 4249 c-6 -18 13 -42 111 -141 123 -123 155 -141 162 -89 3 19
-19 47 -109 137 -117 118 -151 136 -164 93z"/>
<path d="M934 3896 c-3 -8 -4 -23 -2 -33 3 -16 18 -18 153 -21 130 -2 151 0
162 14 9 12 9 22 2 35 -9 17 -24 19 -160 19 -121 0 -151 -3 -155 -14z"/>
<path d="M735 2398 c-2 -7 -9 -39 -15 -70 -23 -116 -108 -198 -228 -219 -42
-8 -66 -17 -72 -29 -14 -27 13 -50 58 -50 48 0 129 -39 169 -81 36 -39 72
-112 73 -149 1 -43 11 -69 32 -75 29 -10 45 10 51 65 15 129 132 240 252 240
36 0 58 20 53 47 -2 13 -19 21 -63 29 -82 15 -129 39 -175 91 -38 44 -70 116
-70 159 0 12 -3 29 -6 38 -7 19 -53 21 -59 4z m58 -228 c16 -22 45 -52 65 -67
20 -15 39 -29 42 -31 3 -2 -4 -10 -15 -18 -38 -27 -88 -78 -105 -107 l-18 -28
-22 36 c-12 20 -44 53 -70 74 l-47 38 54 48 c30 26 60 58 65 71 6 13 14 24 17
24 3 0 19 -18 34 -40z"/>
<path d="M4446 1304 c-9 -8 -16 -30 -16 -47 0 -103 -121 -227 -220 -227 -42 0
-70 -16 -70 -40 0 -24 28 -40 70 -40 98 0 219 -124 220 -225 0 -41 13 -57 41
-53 21 3 26 11 35 61 24 119 107 202 215 216 94 11 95 71 1 82 -109 14 -190
94 -213 211 -13 66 -37 89 -63 62z m79 -377 l-63 -64 -16 28 c-9 16 -37 45
-61 65 l-45 36 38 27 c20 15 48 43 61 63 l24 35 62 -63 62 -63 -62 -64z"/>
<path d="M200 245 c-21 -25 0 -50 41 -50 31 0 34 3 34 30 0 26 -4 30 -31 33
-19 2 -36 -3 -44 -13z"/>
<path d="M4574 246 c-3 -8 -4 -23 -2 -33 3 -15 16 -18 93 -21 75 -2 92 0 102
14 9 12 9 22 2 35 -8 16 -22 19 -100 19 -69 0 -91 -3 -95 -14z"/>
<path d="M4833 253 c-7 -2 -13 -15 -13 -29 0 -17 7 -25 24 -30 56 -14 104 17
77 50 -13 15 -61 20 -88 9z"/>
</g>
</svg>
