<?xml version="1.0" standalone="no"?>
<!DOCTYPE svg PUBLIC "-//W3C//DTD SVG 20010904//EN"
 "http://www.w3.org/TR/2001/REC-SVG-20010904/DTD/svg10.dtd">
<svg version="1.0" xmlns="http://www.w3.org/2000/svg"
 width="512.000000pt" height="491.000000pt" viewBox="0 0 512.000000 491.000000"
 preserveAspectRatio="xMidYMid meet">

<g transform="translate(0.000000,491.000000) scale(0.100000,-0.100000)"
fill="#000000" stroke="none">
<path d="M685 4885 c-34 -33 -32 -61 16 -195 62 -175 144 -468 178 -635 33
-162 62 -377 51 -373 -4 2 -189 173 -410 381 -353 330 -407 377 -434 377 -57
0 -97 -50 -81 -101 8 -25 1265 -1205 1293 -1213 12 -4 64 4 119 18 70 19 166
32 338 46 132 11 270 23 307 27 81 7 98 -3 98 -58 0 -45 -25 -75 -67 -84 -16
-3 -111 -28 -213 -56 -149 -40 -189 -54 -207 -75 -49 -54 -50 -53 302 -399
179 -177 325 -328 325 -337 0 -22 -27 -48 -50 -48 -10 0 -102 81 -210 185
-174 168 -194 185 -226 185 -62 0 -103 -66 -75 -118 5 -9 126 -129 269 -265
143 -137 262 -257 265 -267 7 -27 -37 -66 -62 -54 -10 5 -148 134 -307 288
-159 153 -299 282 -313 288 -30 11 -77 -6 -91 -33 -6 -10 -10 -31 -10 -47 0
-34 34 -70 312 -341 87 -83 162 -160 168 -171 7 -14 5 -24 -9 -41 -16 -20 -23
-22 -45 -14 -14 6 -124 106 -245 223 -129 125 -232 217 -248 221 -55 16 -102
-19 -103 -77 0 -29 17 -49 155 -184 141 -137 156 -155 153 -182 -3 -27 -8 -31
-34 -34 -28 -3 -54 19 -303 259 -154 149 -287 286 -308 318 -76 114 -116 252
-94 319 18 54 9 84 -36 118 -21 16 -179 149 -352 297 -172 148 -323 272 -334
276 -61 23 -124 -42 -101 -103 5 -12 522 -466 566 -497 5 -3 -12 -55 -38 -115
-387 -916 -575 -1663 -589 -2342 -4 -196 0 -222 42 -241 37 -17 62 -13 87 12
21 21 24 36 30 143 12 206 37 493 56 649 22 184 60 349 148 655 l67 235 453 3
452 2 66 -61 c75 -70 114 -89 183 -89 65 0 98 13 142 56 l37 36 42 -28 c86
-57 209 -41 274 37 l26 31 40 -16 c59 -23 119 -20 174 9 l47 25 1154 0 1153 0
11 -32 c16 -54 70 -252 73 -272 2 -15 -9 -23 -52 -38 -513 -179 -1734 -191
-3275 -32 -309 32 -310 32 -334 10 -39 -35 -34 -103 9 -126 12 -6 100 -20 195
-31 l174 -20 98 -61 c423 -266 1029 -422 1903 -490 221 -17 1027 -17 1263 0
99 8 182 11 185 7 11 -11 20 -126 28 -355 7 -215 8 -225 30 -247 32 -32 69
-29 105 6 l29 29 0 139 c0 288 -38 583 -125 973 -106 476 -261 937 -503 1498
l-71 163 59 90 c94 143 134 269 135 424 0 55 -4 114 -8 130 -7 29 8 52 242
364 138 184 253 342 256 352 9 26 -15 70 -46 88 -55 31 -63 23 -348 -358 -149
-198 -275 -362 -280 -366 -17 -10 -13 -62 9 -102 36 -67 18 -221 -40 -348 -37
-81 -431 -647 -460 -662 -33 -16 -60 0 -60 35 0 18 41 85 120 201 72 104 120
184 120 198 0 59 -88 95 -136 55 -12 -9 -99 -129 -193 -267 -95 -137 -179
-254 -188 -259 -25 -14 -63 10 -63 39 0 16 59 110 169 268 93 134 176 258 185
275 29 57 17 101 -34 122 -58 24 -69 12 -320 -350 -129 -187 -242 -343 -253
-346 -22 -7 -57 22 -57 47 0 11 93 153 206 316 121 174 208 310 211 328 7 46
-28 85 -76 85 -20 0 -44 -6 -53 -12 -8 -7 -80 -107 -159 -221 -145 -211 -170
-236 -204 -207 -8 7 -15 22 -15 35 0 12 68 120 152 241 249 361 348 514 348
539 0 13 -10 36 -22 50 -22 25 -30 27 -198 40 -96 8 -200 15 -231 15 -72 0
-98 19 -106 77 -5 38 -3 43 18 52 43 19 564 71 703 71 131 0 132 0 158 28 15
15 159 203 322 417 311 411 317 420 281 472 -18 26 -67 38 -94 23 -11 -6 -62
-64 -112 -130 -51 -66 -94 -118 -96 -116 -2 2 6 43 17 92 46 201 45 190 27
217 -30 47 -111 43 -135 -6 -26 -52 -79 -304 -102 -487 l-12 -95 -95 -125 -95
-125 -97 0 c-53 0 -229 -16 -391 -34 -338 -38 -379 -49 -426 -121 -54 -81 -39
-221 31 -293 60 -62 84 -69 255 -80 85 -5 158 -12 163 -16 4 -4 -81 -135 -189
-292 -108 -156 -205 -302 -215 -324 -41 -87 -12 -203 62 -254 24 -16 37 -32
34 -41 -37 -125 -37 -125 -25 -168 14 -53 67 -114 124 -141 60 -30 120 -27
180 8 l50 28 43 -30 c33 -24 57 -32 102 -35 69 -5 116 13 168 66 l34 33 30
-25 c65 -55 158 -56 237 -2 34 23 74 72 156 193 61 89 114 162 117 163 13 1
274 -646 314 -777 l6 -23 -1094 0 -1095 0 -10 43 c-6 24 -23 60 -37 81 l-26
38 34 38 c63 68 72 157 26 239 -11 20 -137 151 -280 290 -143 139 -258 255
-256 257 2 2 65 19 139 38 150 38 182 51 225 95 47 47 64 93 64 171 0 79 -22
132 -71 173 -54 46 -94 52 -258 39 -373 -30 -512 -44 -579 -61 l-71 -19 -120
114 -119 113 -6 128 c-15 287 -91 637 -227 1043 -62 185 -84 220 -136 220 -14
0 -36 -11 -49 -25z m137 -2634 c34 -61 73 -106 197 -228 l156 -153 -343 0
c-188 0 -342 4 -342 8 0 14 86 244 162 436 l71 178 28 -82 c16 -45 47 -117 71
-159z m3998 -1060 c11 -41 74 -314 85 -367 l6 -32 -68 -6 c-151 -14 -483 -26
-743 -26 -777 0 -1437 86 -1940 254 -136 45 -287 109 -272 114 7 2 110 -3 230
-12 1239 -90 2185 -57 2612 92 76 27 78 27 90 -17z"/>
<path d="M2512 2880 c-40 -38 -41 -139 -1 -176 23 -21 80 -24 103 -5 22 18 39
86 31 124 -15 70 -86 101 -133 57z"/>
</g>
</svg>
